<?xml version="1.0" encoding="utf-8"?>
<!-- Generator: Adobe Illustrator 21.0.2, SVG Export Plug-In . SVG Version: 6.00 Build 0)  -->
<svg version="1.1" id="Layer_1" xmlns="http://www.w3.org/2000/svg" xmlns:xlink="http://www.w3.org/1999/xlink" x="0px" y="0px"
	 viewBox="0 0 532 318" style="enable-background:new 0 0 532 318;" xml:space="preserve">
<style type="text/css">
	.st0{fill:#FFFFFF;stroke:#000000;stroke-miterlimit:10;}
	.st1{fill:none;stroke:#000000;stroke-miterlimit:10;}
	.st2{fill:#FFFFFF;stroke:#231F20;stroke-miterlimit:10;}
	.st3{font-family:'CourierNewPSMT';}
	.st4{font-size:12px;}
</style>
<path class="st0" d="M207.2,169.9c-0.2-2.1-2-3.8-4.2-3.8h-49v-55.3c0,0-10.2-3.9-25.1-3.9c-14.9,0-25.1,3.9-25.1,3.9v55.3h-49
	c-2.2,0-4,1.6-4.2,3.8l-4.1,41.8c-0.2,2.5,1.7,4.6,4.2,4.6h53v53.3c0,0,12.5,3.9,25.1,3.9s25.1-3.9,25.1-3.9v-53.3h53
	c2.5,0,4.4-2.1,4.2-4.6L207.2,169.9z"/>
<path class="st0" d="M136.7,176v-3.6c0-4.2-3.4-7.7-7.7-7.7c-4.2,0-7.7,3.4-7.7,7.7v3.6c-5.2,2.8-8.8,8.2-8.8,14.5
	c0,9.1,7.4,16.4,16.4,16.4c9.1,0,16.4-7.4,16.4-16.4C145.4,184.2,141.9,178.8,136.7,176z"/>
<path class="st0" d="M454.9,171.6c-0.2-2.2-2-3.8-4.2-3.8h-53.8v-57.2c0,0-10.4-4-25.5-4s-25.5,4-25.5,4v57.2H292
	c-2.2,0-4,1.7-4.2,3.8l-4.1,42.5c-0.2,2.5,1.7,4.7,4.2,4.7h58V271c0,0,12.7,2,25.5,2s25.5-2,25.5-2v-33.4l1.1-1.1h31.4l17.7-17.7
	h7.7c2.5,0,4.5-2.2,4.2-4.7L454.9,171.6z"/>
<path class="st1" d="M381.1,189.8c0-2.1-0.7-4.1-1.8-5.7h0l-2.3-34c0-3.1-2.5-5.7-5.7-5.7c-3.1,0-5.7,2.5-5.7,5.7l-2.3,34h0
	c-1.2,1.6-1.8,3.6-1.8,5.7c0,2.1,0.7,4.1,1.8,5.7h0l2.3,34c0,3.1,2.5,5.7,5.7,5.7c3.1,0,5.7-2.5,5.7-5.7l2.3-34h0
	C380.4,193.9,381.1,191.9,381.1,189.8z"/>
<rect x="405.5" y="209.9" transform="matrix(-1.836970e-16 1 -1 -1.836970e-16 635.7898 -208.8441)" class="st2" width="33.7" height="7.1"/>
<text transform="matrix(1 0 0 1 92.6857 74.7252)" class="st3 st4">head brace</text>
<text transform="matrix(1 0 0 1 339.7675 74.7253)" class="st3 st4">body brace</text>
</svg>
