<svg id="Layer_1" data-name="Layer 1" xmlns="http://www.w3.org/2000/svg" viewBox="0 0 370.5 171.58"><defs><style>.cls-1{fill:#fff;}.cls-1,.cls-2{stroke:#231f20;stroke-miterlimit:10;}.cls-2{fill:none;}</style></defs><title>servo-support</title><path class="cls-1" d="M262.52,141.61a4.18,4.18,0,0,0-4.16-3.78h-49V82.54s-10.19-3.93-25.09-3.93-25.09,3.93-25.09,3.93v55.3h-49a4.18,4.18,0,0,0-4.16,3.78L102,183.42a4.18,4.18,0,0,0,4.16,4.59h53v53.33a95.48,95.48,0,0,0,25.09,3.93,95.48,95.48,0,0,0,25.09-3.93V188h53a4.18,4.18,0,0,0,4.16-4.59Z" transform="translate(-101.48 -74.19)"/><path class="cls-1" d="M192,147.7v-3.58a7.68,7.68,0,0,0-15.36,0v3.58a16.44,16.44,0,1,0,15.36,0Z" transform="translate(-101.48 -74.19)"/><path class="cls-1" d="M467.33,139.77a4.25,4.25,0,0,0-4.23-3.84H409.26V78.69s-10.36-4-25.51-4-25.51,4-25.51,4v57.24H304.4a4.25,4.25,0,0,0-4.23,3.84L296,182.29a4.25,4.25,0,0,0,4.23,4.66h58v52.24a163.71,163.71,0,0,0,51,0V205.8l1.11-1.11h31.42L459.53,187h7.7a4.25,4.25,0,0,0,4.23-4.66Z" transform="translate(-101.48 -74.19)"/><path class="cls-2" d="M393.53,157.94a9.72,9.72,0,0,0-1.85-5.7h0l-2.27-34a5.67,5.67,0,0,0-11.34,0l-2.27,34h0a9.73,9.73,0,0,0,0,11.41h0l2.27,34a5.67,5.67,0,0,0,11.34,0l2.27-34h0A9.72,9.72,0,0,0,393.53,157.94Z" transform="translate(-101.48 -74.19)"/><rect class="cls-1" x="417.87" y="178.09" width="33.73" height="7.09" transform="translate(514.89 -327.29) rotate(90)"/></svg>